<?xml version="1.0" encoding="utf-8"?>
<!-- Generator: Adobe Illustrator 27.1.1, SVG Export Plug-In . SVG Version: 6.00 Build 0)  -->
<svg version="1.1" id="Layer_1" xmlns="http://www.w3.org/2000/svg" xmlns:xlink="http://www.w3.org/1999/xlink" x="0px" y="0px"
	 viewBox="0 0 450 450" style="enable-background:new 0 0 450 450;" xml:space="preserve">
<style type="text/css">
	.st0{fill:none;stroke:#817F7D;stroke-width:80;stroke-miterlimit:10;}
	.st1{fill:none;stroke:#F4574B;stroke-width:80;stroke-miterlimit:10;}
</style>
<g id="Layer_1_00000081646701525387482720000000258650279914382723_">
</g>
<g id="TREY_x5F_2">
	
		<image style="overflow:visible;opacity:0.55;" width="438" height="425" xlink:href="FDC19B70.png"  transform="matrix(1 0 0 1 10 -3)">
	</image>
	<g>
		<g>
			<path class="st0" d="M193.6,52.4l187.2,223.1c9.9,11.9,3.3,30-11.9,32.7L82.1,358.8c-15.2,2.7-27.6-12.1-22.3-26.6l99.6-273.7
				C164.6,43.9,183.7,40.6,193.6,52.4z"/>
		</g>
	</g>
</g>
<g id="TREY_x5F_1">
	<g>
		
			<image style="overflow:visible;opacity:0.55;" width="404" height="442" xlink:href="FDC19B71.png"  transform="matrix(1 0 0 1 55 18)">
		</image>
		<g>
			<g>
				
					<image style="overflow:visible;opacity:0.35;enable-background:new    ;" width="3113" height="3444" xlink:href="C881DFED.png"  transform="matrix(0.1176 0 0 0.1176 70.3712 32.676)">
				</image>
				<g>
					<path class="st1" d="M133.9,68.7l252.2,145.7c13.4,7.7,13.4,27,0,34.8L133.9,394.8c-13.4,7.7-30.1-1.9-30.1-17.4V86.2
						C103.8,70.7,120.5,61,133.9,68.7z"/>
				</g>
			</g>
		</g>
	</g>
</g>
<g id="Layer_5">
</g>
<g id="Layer_3">
</g>
<g id="Trash">
</g>
</svg>
