<?xml version="1.0" encoding="utf-8"?>
<!-- Generator: Adobe Illustrator 27.1.1, SVG Export Plug-In . SVG Version: 6.00 Build 0)  -->
<svg version="1.1" id="Layer_1" xmlns="http://www.w3.org/2000/svg" xmlns:xlink="http://www.w3.org/1999/xlink" x="0px" y="0px"
	 viewBox="0 0 24 24" style="enable-background:new 0 0 24 24;" xml:space="preserve">
<style type="text/css">
	.st0{fill:#FFFFFF;}
</style>
<path class="st0" d="M10.5,17c0.7,0,1.3-0.2,1.8-0.7s0.7-1.1,0.7-1.8V9h3V7h-4v5.5c-0.2-0.2-0.4-0.3-0.7-0.4S10.8,12,10.5,12
	c-0.7,0-1.3,0.2-1.8,0.7S8,13.8,8,14.5s0.2,1.3,0.7,1.8S9.8,17,10.5,17z M4,20c-0.5,0-1-0.2-1.4-0.6S2,18.5,2,18V6
	c0-0.5,0.2-1,0.6-1.4C3,4.2,3.5,4,4,4h16c0.6,0,1,0.2,1.4,0.6C21.8,5,22,5.4,22,6v12c0,0.5-0.2,1-0.6,1.4S20.6,20,20,20H4z M4,18h16
	V6H4V18z M4,18V6V18z"/>
</svg>
