<?xml version="1.0" encoding="utf-8"?>
<!-- Generator: Adobe Illustrator 27.1.1, SVG Export Plug-In . SVG Version: 6.00 Build 0)  -->
<svg version="1.1" id="Layer_1" xmlns="http://www.w3.org/2000/svg" xmlns:xlink="http://www.w3.org/1999/xlink" x="0px" y="0px"
	 viewBox="0 0 24 24" style="enable-background:new 0 0 24 24;" xml:space="preserve">
<style type="text/css">
	.st0{fill:#FFFFFF;}
</style>
<path class="st0" d="M16,20c-0.8,0-1.5-0.3-2.1-0.9S13,17.8,13,17s0.3-1.5,0.9-2.1c0.6-0.6,1.3-0.9,2.1-0.9c0.2,0,0.4,0,0.5,0
	c0.2,0,0.3,0.1,0.5,0.2V6h5v2h-3v9c0,0.8-0.3,1.5-0.9,2.1C17.5,19.7,16.8,20,16,20z M3,16v-2h8v2H3z M3,12v-2h12v2H3z M3,8V6h12v2H3
	z"/>
</svg>
