<?xml version="1.0" encoding="utf-8"?>
<!-- Generator: Adobe Illustrator 27.1.1, SVG Export Plug-In . SVG Version: 6.00 Build 0)  -->
<svg version="1.1" id="Layer_1" xmlns="http://www.w3.org/2000/svg" xmlns:xlink="http://www.w3.org/1999/xlink" x="0px" y="0px"
	 viewBox="0 0 24 24" style="enable-background:new 0 0 24 24;" xml:space="preserve">
<style type="text/css">
	.st0{fill:#FFFFFF;}
</style>
<path class="st0" d="M8,12h8v-2H8V12z M8,21v-2H4c-0.5,0-1-0.2-1.4-0.6S2,17.5,2,17V5c0-0.5,0.2-1,0.6-1.4S3.5,3,4,3h16
	c0.6,0,1,0.2,1.4,0.6S22,4.4,22,5v12c0,0.5-0.2,1-0.6,1.4S20.6,19,20,19h-4v2H8z M4,17h16V5H4V17z M4,17V5V17z"/>
</svg>
