<?xml version="1.0" encoding="utf-8"?>
<!-- Generator: Adobe Illustrator 27.1.1, SVG Export Plug-In . SVG Version: 6.00 Build 0)  -->
<svg version="1.1" id="Layer_1" xmlns="http://www.w3.org/2000/svg" xmlns:xlink="http://www.w3.org/1999/xlink" x="0px" y="0px"
	 viewBox="0 0 24 24" style="enable-background:new 0 0 24 24;" xml:space="preserve">
<style type="text/css">
	.st0{fill:#FFFFFF;}
</style>
<path class="st0" d="M12,20H4c-0.5,0-1-0.2-1.4-0.6S2,18.5,2,18V6c0-0.5,0.2-1,0.6-1.4C3,4.2,3.5,4,4,4h16c0.6,0,1,0.2,1.4,0.6
	C21.8,5,22,5.4,22,6v5h-2V6H4v12h8V20z M9.5,16.5v-9l7,4.5L9.5,16.5z M17.9,23l-0.3-1.5c-0.2-0.1-0.4-0.2-0.6-0.3
	c-0.2-0.1-0.4-0.2-0.5-0.3L15,21.4l-1-1.7l1.2-1c0-0.2-0.1-0.4-0.1-0.6s0-0.4,0.1-0.6l-1.2-1l1-1.7l1.5,0.4c0.2-0.1,0.4-0.2,0.5-0.3
	c0.2-0.1,0.4-0.2,0.6-0.3l0.3-1.5h2l0.3,1.5c0.2,0.1,0.4,0.2,0.6,0.3c0.2,0.1,0.4,0.2,0.5,0.4l1.5-0.5l1,1.8l-1.1,1
	c0,0.2,0,0.4,0,0.6s0,0.4,0,0.6l1.1,1l-1,1.7l-1.5-0.5c-0.2,0.1-0.4,0.2-0.5,0.3c-0.2,0.1-0.4,0.2-0.6,0.3L19.9,23H17.9z M18.9,20
	c0.5,0,1-0.2,1.4-0.6c0.4-0.4,0.6-0.9,0.6-1.4s-0.2-1-0.6-1.4c-0.4-0.4-0.9-0.6-1.4-0.6s-1,0.2-1.4,0.6C17,17,16.9,17.5,16.9,18
	s0.2,1,0.6,1.4C17.8,19.8,18.3,20,18.9,20z"/>
</svg>
