<?xml version="1.0" encoding="utf-8"?>
<!-- Generator: Adobe Illustrator 27.1.1, SVG Export Plug-In . SVG Version: 6.00 Build 0)  -->
<svg version="1.1" id="Layer_1" xmlns="http://www.w3.org/2000/svg" xmlns:xlink="http://www.w3.org/1999/xlink" x="0px" y="0px"
	 viewBox="0 0 48 48" style="enable-background:new 0 0 48 48;" xml:space="preserve">
<style type="text/css">
	.st0{fill:#FFFFFF;}
</style>
<path class="st0" d="M24,44c-2.8,0-5.4-0.5-7.8-1.6s-4.6-2.5-6.4-4.3c-1.8-1.8-3.2-3.9-4.3-6.4S4,26.8,4,24s0.5-5.4,1.6-7.8
	s2.5-4.6,4.3-6.4s3.9-3.2,6.4-4.3S21.2,4,24,4c2.9,0,5.7,0.6,8.3,1.8s4.9,2.9,6.8,5.1L24,26V8c-4.5,0-8.2,1.6-11.3,4.6S8,19.5,8,24
	s1.6,8.2,4.7,11.3C15.8,38.5,19.5,40,24,40c2.3,0,4.5-0.5,6.6-1.4s3.9-2.3,5.4-4.1V40c-1.8,1.3-3.7,2.2-5.7,3
	C28.3,43.7,26.2,44,24,44z M40,36V20h4v16H40z M42,44c-0.6,0-1-0.2-1.4-0.6C40.2,43,40,42.6,40,42s0.2-1,0.6-1.4
	C41,40.2,41.4,40,42,40s1,0.2,1.4,0.6C43.8,41,44,41.4,44,42s-0.2,1-0.6,1.4C43,43.8,42.6,44,42,44z"/>
</svg>
