<?xml version="1.0" encoding="utf-8"?>
<!-- Generator: Adobe Illustrator 27.1.1, SVG Export Plug-In . SVG Version: 6.00 Build 0)  -->
<svg version="1.1" id="Layer_1" xmlns="http://www.w3.org/2000/svg" xmlns:xlink="http://www.w3.org/1999/xlink" x="0px" y="0px"
	 viewBox="0 0 72 66" style="enable-background:new 0 0 72 66;" xml:space="preserve">
<style type="text/css">
	.st0{fill:#FFFFFF;}
</style>
<path class="st0" d="M22.2,44c0.8,0,1.4-0.3,2-0.8c0.5-0.5,0.8-1.2,0.8-2s-0.3-1.4-0.8-2c-0.5-0.5-1.2-0.8-2-0.8s-1.4,0.3-2,0.8
	c-0.5,0.5-0.8,1.2-0.8,2s0.3,1.4,0.8,2C20.8,43.7,21.5,44,22.2,44z M19.5,35.8H25V22h-5.5V35.8z M30.5,41.2h22v-5.5h-22V41.2z
	 M30.5,30.2h22v-5.5h-22V30.2z M14,55c-1.5,0-2.8-0.5-3.9-1.6S8.5,51,8.5,49.5v-33c0-1.5,0.5-2.8,1.6-3.9S12.5,11,14,11h44
	c1.5,0,2.8,0.5,3.9,1.6c1.1,1.1,1.6,2.4,1.6,3.9v33c0,1.5-0.5,2.8-1.6,3.9C60.8,54.5,59.5,55,58,55H14z M14,49.5h44v-33H14V49.5z
	 M14,49.5v-33V49.5z"/>
</svg>
