<?xml version="1.0" encoding="utf-8"?>
<!-- Generator: Adobe Illustrator 27.1.1, SVG Export Plug-In . SVG Version: 6.00 Build 0)  -->
<svg version="1.1" id="Layer_1" xmlns="http://www.w3.org/2000/svg" xmlns:xlink="http://www.w3.org/1999/xlink" x="0px" y="0px"
	 viewBox="0 0 64 64" style="enable-background:new 0 0 64 64;" xml:space="preserve">
<style type="text/css">
	.st0{fill:#FFFFFF;}
</style>
<path class="st0" d="M32,62c-4.2,0-8.1-0.8-11.7-2.4s-6.8-3.7-9.5-6.4c-2.7-2.7-4.8-5.9-6.4-9.5C2.8,40,2,36.2,2,32s0.8-8,2.4-11.7
	s3.7-6.8,6.4-9.5s5.9-4.8,9.5-6.4S27.8,2,32,2c4.4,0,8.6,0.9,12.5,2.7s7.3,4.4,10.2,7.6L32,35V8c-6.7,0-12.4,2.3-17,7S8,25.3,8,32
	s2.3,12.4,7,17s10.3,7,17,7c3.5,0,6.8-0.7,9.9-2.1c3.1-1.4,5.8-3.5,8.1-6.1V56c-2.6,1.9-5.5,3.4-8.5,4.4C38.4,61.5,35.2,62,32,62z
	 M56,50V26h6v24H56z M59,62c-0.8,0-1.6-0.3-2.1-0.9S56,59.8,56,59s0.3-1.6,0.9-2.1S58.2,56,59,56s1.6,0.3,2.1,0.9S62,58.2,62,59
	s-0.3,1.6-0.9,2.1S59.8,62,59,62z"/>
</svg>
