<?xml version="1.0" encoding="utf-8"?>
<!-- Generator: Adobe Illustrator 27.1.1, SVG Export Plug-In . SVG Version: 6.00 Build 0)  -->
<svg version="1.1" id="Layer_1" xmlns="http://www.w3.org/2000/svg" xmlns:xlink="http://www.w3.org/1999/xlink" x="0px" y="0px"
	 viewBox="0 0 72 72" style="enable-background:new 0 0 72 72;" xml:space="preserve">
<style type="text/css">
	.st0{fill:#FFFFFF;}
</style>
<path class="st0" d="M36,66c-4.2,0-8.1-0.8-11.7-2.4s-6.8-3.7-9.5-6.4c-2.7-2.7-4.8-5.9-6.4-9.5C6.8,44,6,40.2,6,36s0.8-8,2.4-11.7
	s3.7-6.8,6.4-9.5s5.9-4.8,9.5-6.4S31.8,6,36,6c4.4,0,8.6,0.9,12.5,2.7s7.3,4.4,10.2,7.7L36,39V12c-6.7,0-12.4,2.3-17,7s-7,10.3-7,17
	s2.3,12.4,7,17s10.3,7,17,7c3.5,0,6.8-0.7,9.9-2.1c3.1-1.4,5.8-3.5,8.1-6.1V60c-2.6,1.9-5.5,3.4-8.5,4.4C42.4,65.5,39.2,66,36,66z
	 M60,54V30h6v24H60z M63,66c-0.8,0-1.6-0.3-2.1-0.9C60.3,64.6,60,63.8,60,63s0.3-1.6,0.9-2.1S62.2,60,63,60s1.6,0.3,2.1,0.9
	c0.6,0.6,0.9,1.3,0.9,2.1s-0.3,1.6-0.9,2.1C64.6,65.7,63.8,66,63,66z"/>
</svg>
