<?xml version="1.0" encoding="utf-8"?>
<!-- Generator: Adobe Illustrator 27.2.0, SVG Export Plug-In . SVG Version: 6.00 Build 0)  -->
<svg version="1.1" id="Layer_1" xmlns="http://www.w3.org/2000/svg" xmlns:xlink="http://www.w3.org/1999/xlink" x="0px" y="0px"
	 viewBox="0 0 450 450" style="enable-background:new 0 0 450 450;" xml:space="preserve">
<style type="text/css">
	.st0{display:none;fill:#3B3B3B;}
	.st1{display:none;fill:#F7F7F7;}
	.st2{display:none;}
	.st3{display:inline;}
	.st4{fill:none;stroke:#171321;stroke-width:90;stroke-miterlimit:10;}
	.st5{fill:none;stroke:#FCA326;stroke-width:80;stroke-miterlimit:10;}
	.st6{fill:none;stroke:#FC6D26;stroke-width:80;stroke-miterlimit:10;}
</style>
<image style="display:none;overflow:visible;enable-background:new    ;" width="228" height="103" xlink:href="DDE2A50E.png"  transform="matrix(35.8019 0 0 35.8019 -1417.4121 -360.7278)">
</image>
<rect x="-137.7" y="-33.6" class="st0" width="707.6" height="707.6"/>
<image style="display:none;overflow:visible;enable-background:new    ;" width="307" height="41" xlink:href="DDE2A512.png"  transform="matrix(23.9154 0 0 23.9154 -475.3386 -288.0858)">
</image>
<rect x="-83.3" y="-56.7" class="st1" width="634.7" height="592"/>
<g id="Layer_1_00000081646701525387482720000000258650279914382723_">
</g>
<g id="TREY_x5F_2_00000108275503888783282310000011517333446666643104_" class="st2">
	<g class="st3">
		<g>
			<path class="st4" d="M193.6,52.4l187.2,223.1c9.9,11.9,3.3,30-11.9,32.7L82.1,358.8c-15.2,2.7-27.6-12.1-22.3-26.6l99.6-273.7
				C164.6,43.9,183.7,40.6,193.6,52.4z"/>
		</g>
	</g>
</g>
<g id="TREY_x5F_2">
	<g>
		<g>
			<path class="st5" d="M193.6,52.4l187.2,223.1c9.9,11.9,3.3,30-11.9,32.7L82.1,358.8c-15.2,2.7-27.6-12.1-22.3-26.6l99.6-273.7
				C164.6,43.9,183.7,40.6,193.6,52.4z"/>
		</g>
	</g>
</g>
<g id="TREY_x5F_1_00000132807169211132554710000014497472889347815340_" class="st2">
	<g class="st3">
		<g>
			<g>
				<g>
					<path class="st4" d="M133.9,68.7l252.2,145.7c13.4,7.7,13.4,27,0,34.8L133.9,394.8c-13.4,7.7-30.1-1.9-30.1-17.4V86.2
						C103.8,70.7,120.5,61,133.9,68.7z"/>
				</g>
			</g>
		</g>
	</g>
</g>
<g id="TREY_x5F_1">
	<g>
		<g>
			<g>
				<g>
					<path class="st6" d="M133.9,68.7l252.2,145.7c13.4,7.7,13.4,27,0,34.8L133.9,394.8c-13.4,7.7-30.1-1.9-30.1-17.4V86.2
						C103.8,70.7,120.5,61,133.9,68.7z"/>
				</g>
			</g>
		</g>
	</g>
</g>
<g id="Layer_5">
</g>
<g id="Layer_3">
</g>
<g id="Trash">
</g>
<image style="display:none;overflow:visible;enable-background:new    ;" width="1920" height="1080" xlink:href="../../../Pictures/Screenshots/Screenshot 06.12.2024 11_50_24.png"  transform="matrix(1 0 0 1 692.6667 -540.6667)">
</image>
<image style="display:none;overflow:visible;" width="44" height="40" xlink:href="DDE2A516.jpg"  transform="matrix(9.0375 0 0 9.0375 -460 -36.5)">
</image>
</svg>
